<svg width="250" height="141" viewBox="0 0 250 141" fill="none" xmlns="http://www.w3.org/2000/svg">
<g clip-path="url(#clip0_177_958)">
<path d="M250 0H0V140.12H250V0Z" fill="url(#paint0_radial_177_958)"/>
<g style="mix-blend-mode:screen">
<path d="M57.8844 21.8726C57.6515 21.9153 57.6303 22.1397 57.6303 22.1397C57.6303 22.1397 57.6092 21.9153 57.3762 21.8726C57.6092 21.8299 57.6303 21.6055 57.6303 21.6055C57.6303 21.6055 57.6515 21.8299 57.8844 21.8726Z" fill="#808285"/>
<path d="M56.7093 26.2427C56.4763 26.2855 56.4552 26.5099 56.4552 26.5099C56.4552 26.5099 56.434 26.2855 56.201 26.2427C56.434 26.2 56.4552 25.9756 56.4552 25.9756C56.4552 25.9756 56.4763 26.2 56.7093 26.2427Z" fill="#808285"/>
<path d="M59.4198 48.2759C59.1869 48.3187 59.1657 48.5431 59.1657 48.5431C59.1657 48.5431 59.1446 48.3187 58.9116 48.2759C59.1446 48.2332 59.1657 48.0088 59.1657 48.0088C59.1657 48.0088 59.1869 48.2332 59.4198 48.2759Z" fill="#808285"/>
<path d="M67.689 61.0132C67.4561 61.056 67.4349 61.2804 67.4349 61.2804C67.4349 61.2804 67.4137 61.056 67.1808 61.0132C67.4137 60.9705 67.4349 60.7461 67.4349 60.7461C67.4349 60.7461 67.4561 60.9705 67.689 61.0132Z" fill="#808285"/>
<path d="M67.4349 76.5718C67.2019 76.6146 67.1808 76.839 67.1808 76.839C67.1808 76.839 67.1596 76.6146 66.9266 76.5718C67.1596 76.5291 67.1808 76.3047 67.1808 76.3047C67.1808 76.3047 67.2019 76.5291 67.4349 76.5718Z" fill="#808285"/>
<path d="M74.0418 87.1607C73.8089 87.2034 73.7877 87.4278 73.7877 87.4278C73.7877 87.4278 73.7665 87.2034 73.5336 87.1607C73.7665 87.1179 73.7877 86.8936 73.7877 86.8936C73.7877 86.8936 73.8089 87.1179 74.0418 87.1607Z" fill="#808285"/>
<path d="M71.9241 104.107C71.6912 104.15 71.67 104.374 71.67 104.374C71.67 104.374 71.6488 104.15 71.4159 104.107C71.6488 104.064 71.67 103.84 71.67 103.84C71.67 103.84 71.6912 104.064 71.9241 104.107Z" fill="#808285"/>
<path d="M73.1206 124.592C72.8877 124.635 72.8665 124.859 72.8665 124.859C72.8665 124.859 72.8454 124.635 72.6124 124.592C72.8454 124.55 72.8665 124.325 72.8665 124.325C72.8665 124.325 72.8877 124.55 73.1206 124.592Z" fill="#808285"/>
<path d="M58.4457 115.819C58.2128 115.862 58.1916 116.086 58.1916 116.086C58.1916 116.086 58.1704 115.862 57.9375 115.819C58.1704 115.776 58.1916 115.552 58.1916 115.552C58.1916 115.552 58.2128 115.776 58.4457 115.819Z" fill="#808285"/>
<path d="M47.1271 107.879C46.8942 107.922 46.873 108.147 46.873 108.147C46.873 108.147 46.8518 107.922 46.6189 107.879C46.8518 107.837 46.873 107.612 46.873 107.612C46.873 107.612 46.8942 107.837 47.1271 107.879Z" fill="#808285"/>
<path d="M37.7675 102.056C37.5346 102.099 37.5134 102.323 37.5134 102.323C37.5134 102.323 37.4922 102.099 37.2593 102.056C37.4922 102.013 37.5134 101.789 37.5134 101.789C37.5134 101.789 37.5346 102.013 37.7675 102.056Z" fill="#808285"/>
<path d="M27.4864 105.176C27.2534 105.219 27.2323 105.443 27.2323 105.443C27.2323 105.443 27.2111 105.219 26.9781 105.176C27.2111 105.134 27.2323 104.909 27.2323 104.909C27.2323 104.909 27.2534 105.134 27.4864 105.176Z" fill="#808285"/>
<path d="M18.2218 103.84C17.9889 103.883 17.9677 104.108 17.9677 104.108C17.9677 104.108 17.9466 103.883 17.7136 103.84C17.9466 103.798 17.9677 103.573 17.9677 103.573C17.9677 103.573 17.9889 103.798 18.2218 103.84Z" fill="#808285"/>
<path d="M12.8857 78.3667C12.6527 78.4095 12.6316 78.6339 12.6316 78.6339C12.6316 78.6339 12.6104 78.4095 12.3774 78.3667C12.6104 78.324 12.6316 78.0996 12.6316 78.0996C12.6316 78.0996 12.6527 78.324 12.8857 78.3667Z" fill="#808285"/>
<path d="M32.5688 85.9107C32.3358 85.9534 32.3147 86.1778 32.3147 86.1778C32.3147 86.1778 32.2935 85.9534 32.0605 85.9107C32.2935 85.8679 32.3147 85.6436 32.3147 85.6436C32.3147 85.6436 32.3358 85.8679 32.5688 85.9107Z" fill="#808285"/>
<path d="M29.657 84.0835C29.4241 84.1263 29.4029 84.3507 29.4029 84.3507C29.4029 84.3507 29.3817 84.1263 29.1488 84.0835C29.3817 84.0408 29.4029 83.8164 29.4029 83.8164C29.4029 83.8164 29.4241 84.0408 29.657 84.0835Z" fill="#808285"/>
<path d="M29.9111 63.941C29.6781 63.9837 29.6569 64.2081 29.6569 64.2081C29.6569 64.2081 29.6358 63.9837 29.4028 63.941C29.6358 63.8982 29.6569 63.6738 29.6569 63.6738C29.6569 63.6738 29.6781 63.8982 29.9111 63.941Z" fill="#808285"/>
<path d="M43.0826 53.2554C42.8496 53.2982 42.8285 53.5226 42.8285 53.5226C42.8285 53.5226 42.8073 53.2982 42.5743 53.2554C42.8073 53.2127 42.8285 52.9883 42.8285 52.9883C42.8285 52.9883 42.8496 53.2127 43.0826 53.2554Z" fill="#808285"/>
<path d="M48.1011 78.6236C47.8682 78.6663 47.847 78.8907 47.847 78.8907C47.847 78.8907 47.8258 78.6663 47.5929 78.6236C47.8258 78.5808 47.847 78.3564 47.847 78.3564C47.847 78.3564 47.8682 78.5808 48.1011 78.6236Z" fill="#808285"/>
<path d="M24.8288 80.8355C24.5958 80.8782 24.5747 81.1026 24.5747 81.1026C24.5747 81.1026 24.5535 80.8782 24.3206 80.8355C24.5535 80.7928 24.5747 80.5684 24.5747 80.5684C24.5747 80.5684 24.5958 80.7928 24.8288 80.8355Z" fill="#808285"/>
<path d="M16.2315 89.6822C15.9986 89.7249 15.9774 89.9493 15.9774 89.9493C15.9774 89.9493 15.9562 89.7249 15.7233 89.6822C15.9562 89.6394 15.9774 89.415 15.9774 89.415C15.9774 89.415 15.9986 89.6394 16.2315 89.6822Z" fill="#808285"/>
<path d="M13.7009 60.5113C13.4679 60.554 13.4467 60.7784 13.4467 60.7784C13.4467 60.7784 13.4256 60.554 13.1926 60.5113C13.4256 60.4685 13.4467 60.2441 13.4467 60.2441C13.4467 60.2441 13.4679 60.4685 13.7009 60.5113Z" fill="#808285"/>
<path d="M11.3715 44.6753C11.1386 44.7181 11.1174 44.9425 11.1174 44.9425C11.1174 44.9425 11.0962 44.7181 10.8633 44.6753C11.0962 44.6326 11.1174 44.4082 11.1174 44.4082C11.1174 44.4082 11.1386 44.6326 11.3715 44.6753Z" fill="#808285"/>
<path d="M2.06462 57.0064C1.83168 57.0491 1.81051 57.2735 1.81051 57.2735C1.81051 57.2735 1.78933 57.0491 1.5564 57.0064C1.78933 56.9637 1.81051 56.7393 1.81051 56.7393C1.81051 56.7393 1.83168 56.9637 2.06462 57.0064Z" fill="#808285"/>
<path d="M17.9678 51.7603C17.7349 51.803 17.7137 52.0274 17.7137 52.0274C17.7137 52.0274 17.6925 51.803 17.4596 51.7603C17.6925 51.7176 17.7137 51.4932 17.7137 51.4932C17.7137 51.4932 17.7349 51.7176 17.9678 51.7603Z" fill="#808285"/>
<path d="M18.2218 40.9673C17.9889 41.0101 17.9677 41.2345 17.9677 41.2345C17.9677 41.2345 17.9466 41.0101 17.7136 40.9673C17.9466 40.9246 17.9677 40.7002 17.9677 40.7002C17.9677 40.7002 17.9889 40.9246 18.2218 40.9673Z" fill="#808285"/>
<path d="M14.3891 34.2359C14.1561 34.2786 14.135 34.503 14.135 34.503C14.135 34.503 14.1138 34.2786 13.8809 34.2359C14.1138 34.1931 14.135 33.9688 14.135 33.9688C14.135 33.9688 14.1561 34.1931 14.3891 34.2359Z" fill="#808285"/>
<path d="M11.2127 24.897C10.9798 24.9398 10.9586 25.1642 10.9586 25.1642C10.9586 25.1642 10.9374 24.9398 10.7045 24.897C10.9374 24.8543 10.9586 24.6299 10.9586 24.6299C10.9586 24.6299 10.9798 24.8543 11.2127 24.897Z" fill="#808285"/>
<path d="M18.476 8.14213C18.2431 8.18488 18.2219 8.40927 18.2219 8.40927C18.2219 8.40927 18.2007 8.18488 17.9678 8.14213C18.2007 8.09939 18.2219 7.875 18.2219 7.875C18.2219 7.875 18.2431 8.09939 18.476 8.14213Z" fill="#808285"/>
<path d="M21.3559 15.441C21.1229 15.4837 21.1018 15.7081 21.1018 15.7081C21.1018 15.7081 21.0806 15.4837 20.8477 15.441C21.0806 15.3982 21.1018 15.1738 21.1018 15.1738C21.1018 15.1738 21.1229 15.3982 21.3559 15.441Z" fill="#808285"/>
<path d="M26.6396 22.1402C26.4066 22.1829 26.3855 22.4073 26.3855 22.4073C26.3855 22.4073 26.3643 22.1829 26.1313 22.1402C26.3643 22.0974 26.3855 21.873 26.3855 21.873C26.3855 21.873 26.4066 22.0974 26.6396 22.1402Z" fill="#808285"/>
<path d="M29.657 16.5835C29.4241 16.6263 29.4029 16.8507 29.4029 16.8507C29.4029 16.8507 29.3817 16.6263 29.1488 16.5835C29.3817 16.5408 29.4029 16.3164 29.4029 16.3164C29.4029 16.3164 29.4241 16.5408 29.657 16.5835Z" fill="#808285"/>
<path d="M9.14812 13.4205C8.91518 13.4632 8.89401 13.6876 8.89401 13.6876C8.89401 13.6876 8.87283 13.4632 8.63989 13.4205C8.87283 13.3777 8.89401 13.1533 8.89401 13.1533C8.89401 13.1533 8.91518 13.3777 9.14812 13.4205Z" fill="#808285"/>
<path d="M0.508224 7.87553C0.275288 7.91827 0.254112 8.14267 0.254112 8.14267C0.254112 8.14267 0.232936 7.91827 0 7.87553C0.232936 7.83279 0.254112 7.6084 0.254112 7.6084C0.254112 7.6084 0.275288 7.83279 0.508224 7.87553Z" fill="#808285"/>
<path d="M43.3367 66.5162C43.1038 66.5589 43.0826 66.7833 43.0826 66.7833C43.0826 66.7833 43.0614 66.5589 42.8285 66.5162C43.0614 66.4734 43.0826 66.249 43.0826 66.249C43.0826 66.249 43.1038 66.4734 43.3367 66.5162Z" fill="#808285"/>
<path d="M60.828 105.604C60.5951 105.647 60.5739 105.871 60.5739 105.871C60.5739 105.871 60.5528 105.647 60.3198 105.604C60.5528 105.561 60.5739 105.337 60.5739 105.337C60.5739 105.337 60.5951 105.561 60.828 105.604Z" fill="#808285"/>
<path d="M42.8285 132.819C42.5956 132.862 42.5744 133.086 42.5744 133.086C42.5744 133.086 42.5532 132.862 42.3203 132.819C42.5532 132.776 42.5744 132.552 42.5744 132.552C42.5744 132.552 42.5956 132.776 42.8285 132.819Z" fill="#808285"/>
<path d="M77.4405 97.8033C77.2075 97.846 77.1864 98.0704 77.1864 98.0704C77.1864 98.0704 77.1652 97.846 76.9323 97.8033C77.1652 97.7605 77.1864 97.5361 77.1864 97.5361C77.1864 97.5361 77.2075 97.7605 77.4405 97.8033Z" fill="#808285"/>
<path d="M49.7848 89.4146C49.5519 89.4573 49.5307 89.6817 49.5307 89.6817C49.5307 89.6817 49.5095 89.4573 49.2766 89.4146C49.5095 89.3719 49.5307 89.1475 49.5307 89.1475C49.5307 89.1475 49.5519 89.3719 49.7848 89.4146Z" fill="#808285"/>
<path d="M77.1864 34.5035C76.9535 34.5462 76.9323 34.7706 76.9323 34.7706C76.9323 34.7706 76.9112 34.5462 76.6782 34.5035C76.9112 34.4607 76.9323 34.2363 76.9323 34.2363C76.9323 34.2363 76.9535 34.4607 77.1864 34.5035Z" fill="#808285"/>
<path d="M51.6377 122.796C51.4048 122.839 51.3836 123.064 51.3836 123.064C51.3836 123.064 51.3625 122.839 51.1295 122.796C51.3625 122.754 51.3836 122.529 51.3836 122.529C51.3836 122.529 51.4048 122.754 51.6377 122.796Z" fill="#808285"/>
<path d="M56.4551 132.285C56.2222 132.327 56.201 132.552 56.201 132.552C56.201 132.552 56.1798 132.327 55.9469 132.285C56.1798 132.242 56.201 132.018 56.201 132.018C56.201 132.018 56.2222 132.242 56.4551 132.285Z" fill="#808285"/>
<path d="M61.7809 139.733C61.548 139.776 61.5268 140 61.5268 140C61.5268 140 61.5056 139.776 61.2727 139.733C61.5056 139.69 61.5268 139.466 61.5268 139.466C61.5268 139.466 61.548 139.69 61.7809 139.733Z" fill="#808285"/>
<path d="M51.9023 134.797C51.5106 134.861 51.4788 135.235 51.4788 135.235C51.4788 135.235 51.4471 134.861 51.0553 134.797C51.4471 134.732 51.4788 134.358 51.4788 134.358C51.4788 134.358 51.5106 134.732 51.9023 134.797Z" fill="#808285"/>
<path d="M35.7134 122.797C35.3216 122.861 35.2899 123.235 35.2899 123.235C35.2899 123.235 35.2581 122.861 34.8663 122.797C35.2581 122.732 35.2899 122.358 35.2899 122.358C35.2899 122.358 35.3216 122.732 35.7134 122.797Z" fill="#808285"/>
<path d="M52.4741 103.574C52.0824 103.638 52.0506 104.012 52.0506 104.012C52.0506 104.012 52.0188 103.638 51.6271 103.574C52.0188 103.51 52.0506 103.136 52.0506 103.136C52.0506 103.136 52.0824 103.51 52.4741 103.574Z" fill="#808285"/>
<path d="M62.1938 77.8317C61.8021 77.8958 61.7703 78.2698 61.7703 78.2698C61.7703 78.2698 61.7386 77.8958 61.3468 77.8317C61.7386 77.7675 61.7703 77.3936 61.7703 77.3936C61.7703 77.3936 61.8021 77.7675 62.1938 77.8317Z" fill="#808285"/>
<path d="M56.2012 52.818C55.8094 52.8821 55.7776 53.2561 55.7776 53.2561C55.7776 53.2561 55.7459 52.8821 55.3541 52.818C55.7459 52.7539 55.7776 52.3799 55.7776 52.3799C55.7776 52.3799 55.8094 52.7539 56.2012 52.818Z" fill="#808285"/>
<path d="M71.2253 27.857C70.8336 27.9212 70.8018 28.2951 70.8018 28.2951C70.8018 28.2951 70.7701 27.9212 70.3783 27.857C70.7701 27.7929 70.8018 27.4189 70.8018 27.4189C70.8018 27.4189 70.8336 27.7929 71.2253 27.857Z" fill="#808285"/>
<path d="M39.3555 2.55431C38.9637 2.61842 38.9319 2.99241 38.9319 2.99241C38.9319 2.99241 38.9002 2.61842 38.5084 2.55431C38.9002 2.4902 38.9319 2.11621 38.9319 2.11621C38.9319 2.11621 38.9637 2.4902 39.3555 2.55431Z" fill="#808285"/>
<path d="M79.2089 19.9596C78.8171 20.0237 78.7853 20.3977 78.7853 20.3977C78.7853 20.3977 78.7536 20.0237 78.3618 19.9596C78.7536 19.8955 78.7853 19.5215 78.7853 19.5215C78.7853 19.5215 78.8171 19.8955 79.2089 19.9596Z" fill="#808285"/>
<path d="M37.9369 16.317C37.5451 16.3811 37.5134 16.7551 37.5134 16.7551C37.5134 16.7551 37.4816 16.3811 37.0898 16.317C37.4816 16.2529 37.5134 15.8789 37.5134 15.8789C37.5134 15.8789 37.5451 16.2529 37.9369 16.317Z" fill="#808285"/>
<path d="M33.405 38.232C33.0133 38.2962 32.9815 38.6701 32.9815 38.6701C32.9815 38.6701 32.9497 38.2962 32.558 38.232C32.9497 38.1679 32.9815 37.7939 32.9815 37.7939C32.9815 37.7939 33.0133 38.1679 33.405 38.232Z" fill="#808285"/>
<path d="M17.0043 136.271C16.2207 136.399 16.1572 137.158 16.1572 137.158C16.1572 137.158 16.0937 136.41 15.3102 136.271C16.0937 136.142 16.1572 135.384 16.1572 135.384C16.1572 135.384 16.2207 136.132 17.0043 136.271Z" fill="#808285"/>
<path d="M3.47301 81.1027C2.6895 81.2309 2.62597 81.9896 2.62597 81.9896C2.62597 81.9896 2.56244 81.2416 1.77893 81.1027C2.56244 80.9745 2.62597 80.2158 2.62597 80.2158C2.62597 80.2158 2.6895 80.9638 3.47301 81.1027Z" fill="#808285"/>
<path d="M74.4653 11.2307C73.6818 11.3589 73.6183 12.1069 73.6183 12.1069C73.6183 12.1069 73.5548 11.3589 72.7712 11.2307C73.5548 11.1025 73.6183 10.3545 73.6183 10.3545C73.6183 10.3545 73.6818 11.1025 74.4653 11.2307Z" fill="#808285"/>
<path d="M80.4792 63.9416C79.6957 64.0699 79.6322 64.8285 79.6322 64.8285C79.6322 64.8285 79.5687 64.0805 78.7852 63.9416C79.5687 63.8134 79.6322 63.0654 79.6322 63.0654C79.6322 63.0654 79.6957 63.8134 80.4792 63.9416Z" fill="#808285"/>
<path d="M77.1864 137.382C76.4029 137.51 76.3393 138.269 76.3393 138.269C76.3393 138.269 76.2758 137.521 75.4923 137.382C76.2758 137.254 76.3393 136.506 76.3393 136.506C76.3393 136.506 76.4029 137.254 77.1864 137.382Z" fill="#808285"/>
<path d="M3.05992 111.513C2.27641 111.641 2.21288 112.4 2.21288 112.4C2.21288 112.4 2.14936 111.652 1.36584 111.513C2.14936 111.385 2.21288 110.637 2.21288 110.637C2.21288 110.637 2.27641 111.385 3.05992 111.513Z" fill="#808285"/>
<path d="M2.63646 23.1662C1.85295 23.2945 1.78942 24.0424 1.78942 24.0424C1.78942 24.0424 1.72589 23.2945 0.942383 23.1662C1.72589 23.038 1.78942 22.29 1.78942 22.29C1.78942 22.29 1.85295 23.038 2.63646 23.1662Z" fill="#808285"/>
<path d="M11.795 1.29222C11.0115 1.42044 10.948 2.16842 10.948 2.16842C10.948 2.16842 10.8845 1.42044 10.101 1.29222C10.8845 1.16399 10.948 0.416016 10.948 0.416016C10.948 0.416016 11.0115 1.16399 11.795 1.29222Z" fill="#808285"/>
<path d="M48.6942 14.2961C47.9107 14.4243 47.8472 15.1723 47.8472 15.1723C47.8472 15.1723 47.7836 14.4243 47.0001 14.2961C47.7836 14.1679 47.8472 13.4199 47.8472 13.4199C47.8472 13.4199 47.9107 14.1679 48.6942 14.2961Z" fill="#808285"/>
<path d="M49.5308 38.6701C48.7472 38.7984 48.6837 39.557 48.6837 39.557C48.6837 39.557 48.6202 38.8091 47.8367 38.6701C48.6202 38.5419 48.6837 37.7939 48.6837 37.7939C48.6837 37.7939 48.7472 38.5419 49.5308 38.6701Z" fill="#808285"/>
<path d="M64.3009 1.69901C63.9409 1.76313 63.9091 2.10506 63.9091 2.10506C63.9091 2.10506 63.8773 1.75244 63.5173 1.69901C63.8773 1.6349 63.9091 1.29297 63.9091 1.29297C63.9091 1.29297 63.9409 1.64559 64.3009 1.69901Z" fill="#808285"/>
<path d="M51.7753 26.7029C51.4153 26.767 51.3836 27.109 51.3836 27.109C51.3836 27.109 51.3518 26.7563 50.9918 26.7029C51.3518 26.6388 51.3836 26.2969 51.3836 26.2969C51.3836 26.2969 51.4153 26.6495 51.7753 26.7029Z" fill="#808285"/>
<path d="M24.7123 39.5467C24.3524 39.6108 24.3206 39.9527 24.3206 39.9527C24.3206 39.9527 24.2888 39.6001 23.9288 39.5467C24.2888 39.4826 24.3206 39.1406 24.3206 39.1406C24.3206 39.1406 24.3524 39.4932 24.7123 39.5467Z" fill="#808285"/>
<path d="M37.9051 27.0135C37.5451 27.0776 37.5133 27.4195 37.5133 27.4195C37.5133 27.4195 37.4816 27.0669 37.1216 27.0135C37.4816 26.9494 37.5133 26.6074 37.5133 26.6074C37.5133 26.6074 37.5451 26.96 37.9051 27.0135Z" fill="#808285"/>
<path d="M49.0859 0.406044C48.7259 0.470157 48.6941 0.812089 48.6941 0.812089C48.6941 0.812089 48.6624 0.459471 48.3024 0.406044C48.6624 0.341932 48.6941 0 48.6941 0C48.6941 0 48.7259 0.352617 49.0859 0.406044Z" fill="#808285"/>
<path d="M32.1981 2.99198C31.8381 3.05609 31.8063 3.39803 31.8063 3.39803C31.8063 3.39803 31.7745 3.04541 31.4146 2.99198C31.7745 2.92787 31.8063 2.58594 31.8063 2.58594C31.8063 2.58594 31.8381 2.93855 32.1981 2.99198Z" fill="#808285"/>
<path d="M79.1769 2.11503C78.817 2.17914 78.7852 2.52107 78.7852 2.52107C78.7852 2.52107 78.7534 2.16846 78.3934 2.11503C78.7534 2.05092 78.7852 1.70898 78.7852 1.70898C78.7852 1.70898 78.817 2.0616 79.1769 2.11503Z" fill="#808285"/>
<path d="M5.19879 71.2185C4.8388 71.2827 4.80704 71.6246 4.80704 71.6246C4.80704 71.6246 4.77527 71.272 4.41528 71.2185C4.77527 71.1544 4.80704 70.8125 4.80704 70.8125C4.80704 70.8125 4.8388 71.1651 5.19879 71.2185Z" fill="#808285"/>
<path d="M80.0241 116.609C79.6641 116.673 79.6324 117.015 79.6324 117.015C79.6324 117.015 79.6006 116.663 79.2406 116.609C79.6006 116.545 79.6324 116.203 79.6324 116.203C79.6324 116.203 79.6641 116.556 80.0241 116.609Z" fill="#808285"/>
<path d="M3.04931 95.6666C2.65755 95.7307 2.62579 96.1047 2.62579 96.1047C2.62579 96.1047 2.59403 95.7307 2.20227 95.6666C2.59403 95.6025 2.62579 95.2285 2.62579 95.2285C2.62579 95.2285 2.65755 95.6025 3.04931 95.6666Z" fill="#808285"/>
<path d="M56.6245 7.87462C56.2327 7.93874 56.201 8.31273 56.201 8.31273C56.201 8.31273 56.1692 7.93874 55.7775 7.87462C56.1692 7.81051 56.201 7.43652 56.201 7.43652C56.201 7.43652 56.2327 7.81051 56.6245 7.87462Z" fill="#808285"/>
<path d="M74.4653 46.1715C74.0736 46.2356 74.0418 46.6096 74.0418 46.6096C74.0418 46.6096 74.01 46.2356 73.6183 46.1715C74.01 46.1074 74.0418 45.7334 74.0418 45.7334C74.0418 45.7334 74.0736 46.1074 74.4653 46.1715Z" fill="#808285"/>
<path d="M27.9099 50.4029C27.5181 50.4671 27.4864 50.841 27.4864 50.841C27.4864 50.841 27.4546 50.4671 27.0629 50.4029C27.4546 50.3388 27.4864 49.9648 27.4864 49.9648C27.4864 49.9648 27.5181 50.3388 27.9099 50.4029Z" fill="#808285"/>
<path d="M20.9006 47.4645C20.5089 47.5286 20.4771 47.9026 20.4771 47.9026C20.4771 47.9026 20.4453 47.5286 20.0536 47.4645C20.4453 47.4004 20.4771 47.0264 20.4771 47.0264C20.4771 47.0264 20.5089 47.4004 20.9006 47.4645Z" fill="#808285"/>
<path d="M144.145 21.8726C143.912 21.9153 143.891 22.1397 143.891 22.1397C143.891 22.1397 143.87 21.9153 143.637 21.8726C143.87 21.8299 143.891 21.6055 143.891 21.6055C143.891 21.6055 143.912 21.8299 144.145 21.8726Z" fill="#808285"/>
<path d="M142.97 26.2427C142.737 26.2855 142.716 26.5099 142.716 26.5099C142.716 26.5099 142.694 26.2855 142.461 26.2427C142.694 26.2 142.716 25.9756 142.716 25.9756C142.716 25.9756 142.737 26.2 142.97 26.2427Z" fill="#808285"/>
<path d="M145.68 48.2759C145.447 48.3187 145.426 48.5431 145.426 48.5431C145.426 48.5431 145.405 48.3187 145.172 48.2759C145.405 48.2332 145.426 48.0088 145.426 48.0088C145.426 48.0088 145.447 48.2332 145.68 48.2759Z" fill="#808285"/>
<path d="M153.95 61.0132C153.717 61.056 153.695 61.2804 153.695 61.2804C153.695 61.2804 153.674 61.056 153.441 61.0132C153.674 60.9705 153.695 60.7461 153.695 60.7461C153.695 60.7461 153.717 60.9705 153.95 61.0132Z" fill="#808285"/>
<path d="M153.695 76.5718C153.463 76.6146 153.441 76.839 153.441 76.839C153.441 76.839 153.42 76.6146 153.187 76.5718C153.42 76.5291 153.441 76.3047 153.441 76.3047C153.441 76.3047 153.463 76.5291 153.695 76.5718Z" fill="#808285"/>
<path d="M160.302 87.1607C160.069 87.2034 160.048 87.4278 160.048 87.4278C160.048 87.4278 160.027 87.2034 159.794 87.1607C160.027 87.1179 160.048 86.8936 160.048 86.8936C160.048 86.8936 160.069 87.1179 160.302 87.1607Z" fill="#808285"/>
<path d="M158.185 104.107C157.952 104.15 157.931 104.374 157.931 104.374C157.931 104.374 157.909 104.15 157.676 104.107C157.909 104.064 157.931 103.84 157.931 103.84C157.931 103.84 157.952 104.064 158.185 104.107Z" fill="#808285"/>
<path d="M159.381 124.592C159.148 124.635 159.127 124.859 159.127 124.859C159.127 124.859 159.106 124.635 158.873 124.592C159.106 124.55 159.127 124.325 159.127 124.325C159.127 124.325 159.148 124.55 159.381 124.592Z" fill="#808285"/>
<path d="M144.706 115.819C144.473 115.862 144.452 116.086 144.452 116.086C144.452 116.086 144.431 115.862 144.198 115.819C144.431 115.776 144.452 115.552 144.452 115.552C144.452 115.552 144.473 115.776 144.706 115.819Z" fill="#808285"/>
<path d="M133.387 107.879C133.155 107.922 133.133 108.147 133.133 108.147C133.133 108.147 133.112 107.922 132.879 107.879C133.112 107.837 133.133 107.612 133.133 107.612C133.133 107.612 133.155 107.837 133.387 107.879Z" fill="#808285"/>
<path d="M124.028 102.056C123.795 102.099 123.774 102.323 123.774 102.323C123.774 102.323 123.752 102.099 123.52 102.056C123.752 102.013 123.774 101.789 123.774 101.789C123.774 101.789 123.795 102.013 124.028 102.056Z" fill="#808285"/>
<path d="M113.747 105.176C113.514 105.219 113.493 105.443 113.493 105.443C113.493 105.443 113.471 105.219 113.239 105.176C113.471 105.134 113.493 104.909 113.493 104.909C113.493 104.909 113.514 105.134 113.747 105.176Z" fill="#808285"/>
<path d="M104.482 103.84C104.249 103.883 104.228 104.108 104.228 104.108C104.228 104.108 104.207 103.883 103.974 103.84C104.207 103.798 104.228 103.573 104.228 103.573C104.228 103.573 104.249 103.798 104.482 103.84Z" fill="#808285"/>
<path d="M99.1458 78.3667C98.9129 78.4095 98.8917 78.6339 98.8917 78.6339C98.8917 78.6339 98.8705 78.4095 98.6376 78.3667C98.8705 78.324 98.8917 78.0996 98.8917 78.0996C98.8917 78.0996 98.9129 78.324 99.1458 78.3667Z" fill="#808285"/>
<path d="M118.829 85.9107C118.596 85.9534 118.575 86.1778 118.575 86.1778C118.575 86.1778 118.554 85.9534 118.321 85.9107C118.554 85.8679 118.575 85.6436 118.575 85.6436C118.575 85.6436 118.596 85.8679 118.829 85.9107Z" fill="#808285"/>
<path d="M115.917 84.0835C115.684 84.1263 115.663 84.3507 115.663 84.3507C115.663 84.3507 115.642 84.1263 115.409 84.0835C115.642 84.0408 115.663 83.8164 115.663 83.8164C115.663 83.8164 115.684 84.0408 115.917 84.0835Z" fill="#808285"/>
<path d="M116.172 63.941C115.939 63.9837 115.917 64.2081 115.917 64.2081C115.917 64.2081 115.896 63.9837 115.663 63.941C115.896 63.8982 115.917 63.6738 115.917 63.6738C115.917 63.6738 115.939 63.8982 116.172 63.941Z" fill="#808285"/>
<path d="M129.343 53.2554C129.11 53.2982 129.089 53.5226 129.089 53.5226C129.089 53.5226 129.068 53.2982 128.835 53.2554C129.068 53.2127 129.089 52.9883 129.089 52.9883C129.089 52.9883 129.11 53.2127 129.343 53.2554Z" fill="#808285"/>
<path d="M134.362 78.6236C134.129 78.6663 134.108 78.8907 134.108 78.8907C134.108 78.8907 134.086 78.6663 133.854 78.6236C134.086 78.5808 134.108 78.3564 134.108 78.3564C134.108 78.3564 134.129 78.5808 134.362 78.6236Z" fill="#808285"/>
<path d="M111.089 80.8355C110.856 80.8782 110.835 81.1026 110.835 81.1026C110.835 81.1026 110.814 80.8782 110.581 80.8355C110.814 80.7928 110.835 80.5684 110.835 80.5684C110.835 80.5684 110.856 80.7928 111.089 80.8355Z" fill="#808285"/>
<path d="M102.492 89.6822C102.259 89.7249 102.238 89.9493 102.238 89.9493C102.238 89.9493 102.216 89.7249 101.984 89.6822C102.216 89.6394 102.238 89.415 102.238 89.415C102.238 89.415 102.259 89.6394 102.492 89.6822Z" fill="#808285"/>
<path d="M99.9611 60.5113C99.7282 60.554 99.707 60.7784 99.707 60.7784C99.707 60.7784 99.6858 60.554 99.4529 60.5113C99.6858 60.4685 99.707 60.2441 99.707 60.2441C99.707 60.2441 99.7282 60.4685 99.9611 60.5113Z" fill="#808285"/>
<path d="M97.6319 44.6753C97.3989 44.7181 97.3778 44.9425 97.3778 44.9425C97.3778 44.9425 97.3566 44.7181 97.1237 44.6753C97.3566 44.6326 97.3778 44.4082 97.3778 44.4082C97.3778 44.4082 97.3989 44.6326 97.6319 44.6753Z" fill="#808285"/>
<path d="M88.325 57.0064C88.0921 57.0491 88.0709 57.2735 88.0709 57.2735C88.0709 57.2735 88.0497 57.0491 87.8168 57.0064C88.0497 56.9637 88.0709 56.7393 88.0709 56.7393C88.0709 56.7393 88.0921 56.9637 88.325 57.0064Z" fill="#808285"/>
<path d="M104.228 51.7603C103.995 51.803 103.974 52.0274 103.974 52.0274C103.974 52.0274 103.953 51.803 103.72 51.7603C103.953 51.7176 103.974 51.4932 103.974 51.4932C103.974 51.4932 103.995 51.7176 104.228 51.7603Z" fill="#808285"/>
<path d="M104.482 40.9673C104.249 41.0101 104.228 41.2345 104.228 41.2345C104.228 41.2345 104.207 41.0101 103.974 40.9673C104.207 40.9246 104.228 40.7002 104.228 40.7002C104.228 40.7002 104.249 40.9246 104.482 40.9673Z" fill="#808285"/>
<path d="M100.649 34.2359C100.417 34.2786 100.395 34.503 100.395 34.503C100.395 34.503 100.374 34.2786 100.141 34.2359C100.374 34.1931 100.395 33.9688 100.395 33.9688C100.395 33.9688 100.417 34.1931 100.649 34.2359Z" fill="#808285"/>
<path d="M97.4729 24.897C97.24 24.9398 97.2188 25.1642 97.2188 25.1642C97.2188 25.1642 97.1977 24.9398 96.9647 24.897C97.1977 24.8543 97.2188 24.6299 97.2188 24.6299C97.2188 24.6299 97.24 24.8543 97.4729 24.897Z" fill="#808285"/>
<path d="M104.736 8.14213C104.503 8.18488 104.482 8.40927 104.482 8.40927C104.482 8.40927 104.461 8.18488 104.228 8.14213C104.461 8.09939 104.482 7.875 104.482 7.875C104.482 7.875 104.503 8.09939 104.736 8.14213Z" fill="#808285"/>
<path d="M107.616 15.441C107.383 15.4837 107.362 15.7081 107.362 15.7081C107.362 15.7081 107.341 15.4837 107.108 15.441C107.341 15.3982 107.362 15.1738 107.362 15.1738C107.362 15.1738 107.383 15.3982 107.616 15.441Z" fill="#808285"/>
<path d="M112.9 22.1402C112.667 22.1829 112.646 22.4073 112.646 22.4073C112.646 22.4073 112.624 22.1829 112.391 22.1402C112.624 22.0974 112.646 21.873 112.646 21.873C112.646 21.873 112.667 22.0974 112.9 22.1402Z" fill="#808285"/>
<path d="M115.917 16.5835C115.684 16.6263 115.663 16.8507 115.663 16.8507C115.663 16.8507 115.642 16.6263 115.409 16.5835C115.642 16.5408 115.663 16.3164 115.663 16.3164C115.663 16.3164 115.684 16.5408 115.917 16.5835Z" fill="#808285"/>
<path d="M95.4084 13.4205C95.1754 13.4632 95.1543 13.6876 95.1543 13.6876C95.1543 13.6876 95.1331 13.4632 94.9001 13.4205C95.1331 13.3777 95.1543 13.1533 95.1543 13.1533C95.1543 13.1533 95.1754 13.3777 95.4084 13.4205Z" fill="#808285"/>
<path d="M86.7685 7.87553C86.5355 7.91827 86.5144 8.14267 86.5144 8.14267C86.5144 8.14267 86.4932 7.91827 86.2603 7.87553C86.4932 7.83279 86.5144 7.6084 86.5144 7.6084C86.5144 7.6084 86.5355 7.83279 86.7685 7.87553Z" fill="#808285"/>
<path d="M129.597 66.5162C129.364 66.5589 129.343 66.7833 129.343 66.7833C129.343 66.7833 129.322 66.5589 129.089 66.5162C129.322 66.4734 129.343 66.249 129.343 66.249C129.343 66.249 129.364 66.4734 129.597 66.5162Z" fill="#808285"/>
<path d="M147.088 105.604C146.855 105.647 146.834 105.871 146.834 105.871C146.834 105.871 146.813 105.647 146.58 105.604C146.813 105.561 146.834 105.337 146.834 105.337C146.834 105.337 146.855 105.561 147.088 105.604Z" fill="#808285"/>
<path d="M129.089 132.819C128.856 132.862 128.835 133.086 128.835 133.086C128.835 133.086 128.814 132.862 128.581 132.819C128.814 132.776 128.835 132.552 128.835 132.552C128.835 132.552 128.856 132.776 129.089 132.819Z" fill="#808285"/>
<path d="M163.701 97.8033C163.468 97.846 163.447 98.0704 163.447 98.0704C163.447 98.0704 163.426 97.846 163.193 97.8033C163.426 97.7605 163.447 97.5361 163.447 97.5361C163.447 97.5361 163.468 97.7605 163.701 97.8033Z" fill="#808285"/>
<path d="M136.045 89.4146C135.812 89.4573 135.791 89.6817 135.791 89.6817C135.791 89.6817 135.77 89.4573 135.537 89.4146C135.77 89.3719 135.791 89.1475 135.791 89.1475C135.791 89.1475 135.812 89.3719 136.045 89.4146Z" fill="#808285"/>
<path d="M163.447 34.5035C163.214 34.5462 163.193 34.7706 163.193 34.7706C163.193 34.7706 163.172 34.5462 162.939 34.5035C163.172 34.4607 163.193 34.2363 163.193 34.2363C163.193 34.2363 163.214 34.4607 163.447 34.5035Z" fill="#808285"/>
<path d="M137.898 122.796C137.665 122.839 137.644 123.064 137.644 123.064C137.644 123.064 137.623 122.839 137.39 122.796C137.623 122.754 137.644 122.529 137.644 122.529C137.644 122.529 137.665 122.754 137.898 122.796Z" fill="#808285"/>
<path d="M142.716 132.285C142.483 132.327 142.462 132.552 142.462 132.552C142.462 132.552 142.44 132.327 142.207 132.285C142.44 132.242 142.462 132.018 142.462 132.018C142.462 132.018 142.483 132.242 142.716 132.285Z" fill="#808285"/>
<path d="M148.041 139.733C147.808 139.776 147.787 140 147.787 140C147.787 140 147.766 139.776 147.533 139.733C147.766 139.69 147.787 139.466 147.787 139.466C147.787 139.466 147.808 139.69 148.041 139.733Z" fill="#808285"/>
<path d="M138.163 134.797C137.771 134.861 137.739 135.235 137.739 135.235C137.739 135.235 137.707 134.861 137.316 134.797C137.707 134.732 137.739 134.358 137.739 134.358C137.739 134.358 137.771 134.732 138.163 134.797Z" fill="#808285"/>
<path d="M121.974 122.797C121.582 122.861 121.55 123.235 121.55 123.235C121.55 123.235 121.518 122.861 121.127 122.797C121.518 122.732 121.55 122.358 121.55 122.358C121.55 122.358 121.582 122.732 121.974 122.797Z" fill="#808285"/>
<path d="M138.734 103.574C138.343 103.638 138.311 104.012 138.311 104.012C138.311 104.012 138.279 103.638 137.887 103.574C138.279 103.51 138.311 103.136 138.311 103.136C138.311 103.136 138.343 103.51 138.734 103.574Z" fill="#808285"/>
<path d="M148.454 77.8317C148.063 77.8958 148.031 78.2698 148.031 78.2698C148.031 78.2698 147.999 77.8958 147.607 77.8317C147.999 77.7675 148.031 77.3936 148.031 77.3936C148.031 77.3936 148.063 77.7675 148.454 77.8317Z" fill="#808285"/>
<path d="M142.461 52.818C142.07 52.8821 142.038 53.2561 142.038 53.2561C142.038 53.2561 142.006 52.8821 141.614 52.818C142.006 52.7539 142.038 52.3799 142.038 52.3799C142.038 52.3799 142.07 52.7539 142.461 52.818Z" fill="#808285"/>
<path d="M157.486 27.857C157.094 27.9212 157.062 28.2951 157.062 28.2951C157.062 28.2951 157.03 27.9212 156.639 27.857C157.03 27.7929 157.062 27.4189 157.062 27.4189C157.062 27.4189 157.094 27.7929 157.486 27.857Z" fill="#808285"/>
<path d="M125.616 2.55431C125.224 2.61842 125.192 2.99241 125.192 2.99241C125.192 2.99241 125.161 2.61842 124.769 2.55431C125.161 2.4902 125.192 2.11621 125.192 2.11621C125.192 2.11621 125.224 2.4902 125.616 2.55431Z" fill="#808285"/>
<path d="M165.469 19.9596C165.077 20.0237 165.046 20.3977 165.046 20.3977C165.046 20.3977 165.014 20.0237 164.622 19.9596C165.014 19.8955 165.046 19.5215 165.046 19.5215C165.046 19.5215 165.077 19.8955 165.469 19.9596Z" fill="#808285"/>
<path d="M124.197 16.317C123.805 16.3811 123.774 16.7551 123.774 16.7551C123.774 16.7551 123.742 16.3811 123.35 16.317C123.742 16.2529 123.774 15.8789 123.774 15.8789C123.774 15.8789 123.805 16.2529 124.197 16.317Z" fill="#808285"/>
<path d="M119.665 38.232C119.274 38.2962 119.242 38.6701 119.242 38.6701C119.242 38.6701 119.21 38.2962 118.818 38.232C119.21 38.1679 119.242 37.7939 119.242 37.7939C119.242 37.7939 119.274 38.1679 119.665 38.232Z" fill="#808285"/>
<path d="M103.265 136.271C102.481 136.399 102.418 137.158 102.418 137.158C102.418 137.158 102.354 136.41 101.571 136.271C102.354 136.142 102.418 135.384 102.418 135.384C102.418 135.384 102.481 136.132 103.265 136.271Z" fill="#808285"/>
<path d="M89.7331 81.1027C88.9496 81.2309 88.8861 81.9896 88.8861 81.9896C88.8861 81.9896 88.8226 81.2416 88.0391 81.1027C88.8226 80.9745 88.8861 80.2158 88.8861 80.2158C88.8861 80.2158 88.9496 80.9638 89.7331 81.1027Z" fill="#808285"/>
<path d="M160.726 11.2307C159.942 11.3589 159.879 12.1069 159.879 12.1069C159.879 12.1069 159.815 11.3589 159.032 11.2307C159.815 11.1025 159.879 10.3545 159.879 10.3545C159.879 10.3545 159.942 11.1025 160.726 11.2307Z" fill="#808285"/>
<path d="M166.74 63.9416C165.956 64.0699 165.893 64.8285 165.893 64.8285C165.893 64.8285 165.829 64.0805 165.046 63.9416C165.829 63.8134 165.893 63.0654 165.893 63.0654C165.893 63.0654 165.956 63.8134 166.74 63.9416Z" fill="#808285"/>
<path d="M163.447 137.382C162.663 137.51 162.6 138.269 162.6 138.269C162.6 138.269 162.536 137.521 161.753 137.382C162.536 137.254 162.6 136.506 162.6 136.506C162.6 136.506 162.663 137.254 163.447 137.382Z" fill="#808285"/>
<path d="M89.3098 111.513C88.5263 111.641 88.4628 112.4 88.4628 112.4C88.4628 112.4 88.3992 111.652 87.6157 111.513C88.3992 111.385 88.4628 110.637 88.4628 110.637C88.4628 110.637 88.5263 111.385 89.3098 111.513Z" fill="#808285"/>
<path d="M88.8967 23.1662C88.1132 23.2945 88.0497 24.0424 88.0497 24.0424C88.0497 24.0424 87.9861 23.2945 87.2026 23.1662C87.9861 23.038 88.0497 22.29 88.0497 22.29C88.0497 22.29 88.1132 23.038 88.8967 23.1662Z" fill="#808285"/>
<path d="M98.0555 1.29222C97.272 1.42044 97.2085 2.16842 97.2085 2.16842C97.2085 2.16842 97.145 1.42044 96.3615 1.29222C97.145 1.16399 97.2085 0.416016 97.2085 0.416016C97.2085 0.416016 97.272 1.16399 98.0555 1.29222Z" fill="#808285"/>
<path d="M134.955 14.2961C134.171 14.4243 134.108 15.1723 134.108 15.1723C134.108 15.1723 134.044 14.4243 133.26 14.2961C134.044 14.1679 134.108 13.4199 134.108 13.4199C134.108 13.4199 134.171 14.1679 134.955 14.2961Z" fill="#808285"/>
<path d="M135.791 38.6701C135.007 38.7984 134.944 39.557 134.944 39.557C134.944 39.557 134.88 38.8091 134.097 38.6701C134.88 38.5419 134.944 37.7939 134.944 37.7939C134.944 37.7939 135.007 38.5419 135.791 38.6701Z" fill="#808285"/>
<path d="M150.561 1.69901C150.201 1.76313 150.169 2.10506 150.169 2.10506C150.169 2.10506 150.138 1.75244 149.778 1.69901C150.138 1.6349 150.169 1.29297 150.169 1.29297C150.169 1.29297 150.201 1.64559 150.561 1.69901Z" fill="#808285"/>
<path d="M138.036 26.7029C137.676 26.767 137.644 27.109 137.644 27.109C137.644 27.109 137.612 26.7563 137.252 26.7029C137.612 26.6388 137.644 26.2969 137.644 26.2969C137.644 26.2969 137.676 26.6495 138.036 26.7029Z" fill="#808285"/>
<path d="M110.973 39.5467C110.613 39.6108 110.581 39.9527 110.581 39.9527C110.581 39.9527 110.549 39.6001 110.189 39.5467C110.549 39.4826 110.581 39.1406 110.581 39.1406C110.581 39.1406 110.613 39.4932 110.973 39.5467Z" fill="#808285"/>
<path d="M124.165 27.0135C123.805 27.0776 123.774 27.4195 123.774 27.4195C123.774 27.4195 123.742 27.0669 123.382 27.0135C123.742 26.9494 123.774 26.6074 123.774 26.6074C123.774 26.6074 123.805 26.96 124.165 27.0135Z" fill="#808285"/>
<path d="M135.346 0.406044C134.986 0.470157 134.954 0.812089 134.954 0.812089C134.954 0.812089 134.923 0.459471 134.563 0.406044C134.923 0.341932 134.954 0 134.954 0C134.954 0 134.986 0.352617 135.346 0.406044Z" fill="#808285"/>
<path d="M118.458 2.99198C118.098 3.05609 118.067 3.39803 118.067 3.39803C118.067 3.39803 118.035 3.04541 117.675 2.99198C118.035 2.92787 118.067 2.58594 118.067 2.58594C118.067 2.58594 118.098 2.93855 118.458 2.99198Z" fill="#808285"/>
<path d="M165.437 2.11503C165.077 2.17914 165.046 2.52107 165.046 2.52107C165.046 2.52107 165.014 2.16846 164.654 2.11503C165.014 2.05092 165.046 1.70898 165.046 1.70898C165.046 1.70898 165.077 2.0616 165.437 2.11503Z" fill="#808285"/>
<path d="M91.4589 71.2185C91.0989 71.2827 91.0672 71.6246 91.0672 71.6246C91.0672 71.6246 91.0354 71.272 90.6754 71.2185C91.0354 71.1544 91.0672 70.8125 91.0672 70.8125C91.0672 70.8125 91.0989 71.1651 91.4589 71.2185Z" fill="#808285"/>
<path d="M166.284 116.609C165.925 116.673 165.893 117.015 165.893 117.015C165.893 117.015 165.861 116.663 165.501 116.609C165.861 116.545 165.893 116.203 165.893 116.203C165.893 116.203 165.925 116.556 166.284 116.609Z" fill="#808285"/>
<path d="M89.3097 95.6666C88.9179 95.7307 88.8862 96.1047 88.8862 96.1047C88.8862 96.1047 88.8544 95.7307 88.4626 95.6666C88.8544 95.6025 88.8862 95.2285 88.8862 95.2285C88.8862 95.2285 88.9179 95.6025 89.3097 95.6666Z" fill="#808285"/>
<path d="M142.885 7.87462C142.493 7.93874 142.462 8.31273 142.462 8.31273C142.462 8.31273 142.43 7.93874 142.038 7.87462C142.43 7.81051 142.462 7.43652 142.462 7.43652C142.462 7.43652 142.493 7.81051 142.885 7.87462Z" fill="#808285"/>
<path d="M160.726 46.1715C160.334 46.2356 160.302 46.6096 160.302 46.6096C160.302 46.6096 160.271 46.2356 159.879 46.1715C160.271 46.1074 160.302 45.7334 160.302 45.7334C160.302 45.7334 160.334 46.1074 160.726 46.1715Z" fill="#808285"/>
<path d="M114.17 50.4029C113.779 50.4671 113.747 50.841 113.747 50.841C113.747 50.841 113.715 50.4671 113.323 50.4029C113.715 50.3388 113.747 49.9648 113.747 49.9648C113.747 49.9648 113.779 50.3388 114.17 50.4029Z" fill="#808285"/>
<path d="M107.161 47.4645C106.769 47.5286 106.737 47.9026 106.737 47.9026C106.737 47.9026 106.706 47.5286 106.314 47.4645C106.706 47.4004 106.737 47.0264 106.737 47.0264C106.737 47.0264 106.769 47.4004 107.161 47.4645Z" fill="#808285"/>
<path d="M230.405 21.8726C230.173 21.9153 230.151 22.1397 230.151 22.1397C230.151 22.1397 230.13 21.9153 229.897 21.8726C230.13 21.8299 230.151 21.6055 230.151 21.6055C230.151 21.6055 230.173 21.8299 230.405 21.8726Z" fill="#808285"/>
<path d="M229.23 26.2427C228.997 26.2855 228.976 26.5099 228.976 26.5099C228.976 26.5099 228.955 26.2855 228.722 26.2427C228.955 26.2 228.976 25.9756 228.976 25.9756C228.976 25.9756 228.997 26.2 229.23 26.2427Z" fill="#808285"/>
<path d="M231.941 48.2759C231.708 48.3187 231.686 48.5431 231.686 48.5431C231.686 48.5431 231.665 48.3187 231.432 48.2759C231.665 48.2332 231.686 48.0088 231.686 48.0088C231.686 48.0088 231.708 48.2332 231.941 48.2759Z" fill="#808285"/>
<path d="M240.21 61.0132C239.977 61.056 239.956 61.2804 239.956 61.2804C239.956 61.2804 239.934 61.056 239.702 61.0132C239.934 60.9705 239.956 60.7461 239.956 60.7461C239.956 60.7461 239.977 60.9705 240.21 61.0132Z" fill="#808285"/>
<path d="M239.956 76.5718C239.723 76.6146 239.702 76.839 239.702 76.839C239.702 76.839 239.68 76.6146 239.448 76.5718C239.68 76.5291 239.702 76.3047 239.702 76.3047C239.702 76.3047 239.723 76.5291 239.956 76.5718Z" fill="#808285"/>
<path d="M246.563 87.1607C246.33 87.2034 246.309 87.4278 246.309 87.4278C246.309 87.4278 246.287 87.2034 246.054 87.1607C246.287 87.1179 246.309 86.8936 246.309 86.8936C246.309 86.8936 246.33 87.1179 246.563 87.1607Z" fill="#808285"/>
<path d="M244.445 104.107C244.212 104.15 244.191 104.374 244.191 104.374C244.191 104.374 244.17 104.15 243.937 104.107C244.17 104.064 244.191 103.84 244.191 103.84C244.191 103.84 244.212 104.064 244.445 104.107Z" fill="#808285"/>
<path d="M245.641 124.592C245.408 124.635 245.387 124.859 245.387 124.859C245.387 124.859 245.366 124.635 245.133 124.592C245.366 124.55 245.387 124.325 245.387 124.325C245.387 124.325 245.408 124.55 245.641 124.592Z" fill="#808285"/>
<path d="M230.967 115.819C230.734 115.862 230.712 116.086 230.712 116.086C230.712 116.086 230.691 115.862 230.458 115.819C230.691 115.776 230.712 115.552 230.712 115.552C230.712 115.552 230.734 115.776 230.967 115.819Z" fill="#808285"/>
<path d="M219.648 107.879C219.415 107.922 219.394 108.147 219.394 108.147C219.394 108.147 219.373 107.922 219.14 107.879C219.373 107.837 219.394 107.612 219.394 107.612C219.394 107.612 219.415 107.837 219.648 107.879Z" fill="#808285"/>
<path d="M210.288 102.056C210.055 102.099 210.034 102.323 210.034 102.323C210.034 102.323 210.013 102.099 209.78 102.056C210.013 102.013 210.034 101.789 210.034 101.789C210.034 101.789 210.055 102.013 210.288 102.056Z" fill="#808285"/>
<path d="M200.007 105.176C199.774 105.219 199.753 105.443 199.753 105.443C199.753 105.443 199.732 105.219 199.499 105.176C199.732 105.134 199.753 104.909 199.753 104.909C199.753 104.909 199.774 105.134 200.007 105.176Z" fill="#808285"/>
<path d="M190.743 103.84C190.51 103.883 190.488 104.108 190.488 104.108C190.488 104.108 190.467 103.883 190.234 103.84C190.467 103.798 190.488 103.573 190.488 103.573C190.488 103.573 190.51 103.798 190.743 103.84Z" fill="#808285"/>
<path d="M185.406 78.3667C185.173 78.4095 185.152 78.6339 185.152 78.6339C185.152 78.6339 185.131 78.4095 184.898 78.3667C185.131 78.324 185.152 78.0996 185.152 78.0996C185.152 78.0996 185.173 78.324 185.406 78.3667Z" fill="#808285"/>
<path d="M205.089 85.9107C204.856 85.9534 204.835 86.1778 204.835 86.1778C204.835 86.1778 204.814 85.9534 204.581 85.9107C204.814 85.8679 204.835 85.6436 204.835 85.6436C204.835 85.6436 204.856 85.8679 205.089 85.9107Z" fill="#808285"/>
<path d="M202.178 84.0835C201.945 84.1263 201.924 84.3507 201.924 84.3507C201.924 84.3507 201.902 84.1263 201.67 84.0835C201.902 84.0408 201.924 83.8164 201.924 83.8164C201.924 83.8164 201.945 84.0408 202.178 84.0835Z" fill="#808285"/>
<path d="M202.432 63.941C202.199 63.9837 202.178 64.2081 202.178 64.2081C202.178 64.2081 202.157 63.9837 201.924 63.941C202.157 63.8982 202.178 63.6738 202.178 63.6738C202.178 63.6738 202.199 63.8982 202.432 63.941Z" fill="#808285"/>
<path d="M215.603 53.2554C215.37 53.2982 215.349 53.5226 215.349 53.5226C215.349 53.5226 215.328 53.2982 215.095 53.2554C215.328 53.2127 215.349 52.9883 215.349 52.9883C215.349 52.9883 215.37 53.2127 215.603 53.2554Z" fill="#808285"/>
<path d="M220.622 78.6236C220.389 78.6663 220.368 78.8907 220.368 78.8907C220.368 78.8907 220.347 78.6663 220.114 78.6236C220.347 78.5808 220.368 78.3564 220.368 78.3564C220.368 78.3564 220.389 78.5808 220.622 78.6236Z" fill="#808285"/>
<path d="M197.35 80.8355C197.117 80.8782 197.096 81.1026 197.096 81.1026C197.096 81.1026 197.074 80.8782 196.841 80.8355C197.074 80.7928 197.096 80.5684 197.096 80.5684C197.096 80.5684 197.117 80.7928 197.35 80.8355Z" fill="#808285"/>
<path d="M188.752 89.6822C188.519 89.7249 188.498 89.9493 188.498 89.9493C188.498 89.9493 188.477 89.7249 188.244 89.6822C188.477 89.6394 188.498 89.415 188.498 89.415C188.498 89.415 188.519 89.6394 188.752 89.6822Z" fill="#808285"/>
<path d="M186.222 60.5113C185.989 60.554 185.967 60.7784 185.967 60.7784C185.967 60.7784 185.946 60.554 185.713 60.5113C185.946 60.4685 185.967 60.2441 185.967 60.2441C185.967 60.2441 185.989 60.4685 186.222 60.5113Z" fill="#808285"/>
<path d="M183.882 44.6753C183.649 44.7181 183.628 44.9425 183.628 44.9425C183.628 44.9425 183.606 44.7181 183.374 44.6753C183.606 44.6326 183.628 44.4082 183.628 44.4082C183.628 44.4082 183.649 44.6326 183.882 44.6753Z" fill="#808285"/>
<path d="M174.585 57.0064C174.353 57.0491 174.331 57.2735 174.331 57.2735C174.331 57.2735 174.31 57.0491 174.077 57.0064C174.31 56.9637 174.331 56.7393 174.331 56.7393C174.331 56.7393 174.353 56.9637 174.585 57.0064Z" fill="#808285"/>
<path d="M190.489 51.7603C190.256 51.803 190.234 52.0274 190.234 52.0274C190.234 52.0274 190.213 51.803 189.98 51.7603C190.213 51.7176 190.234 51.4932 190.234 51.4932C190.234 51.4932 190.256 51.7176 190.489 51.7603Z" fill="#808285"/>
<path d="M190.743 40.9673C190.51 41.0101 190.488 41.2345 190.488 41.2345C190.488 41.2345 190.467 41.0101 190.234 40.9673C190.467 40.9246 190.488 40.7002 190.488 40.7002C190.488 40.7002 190.51 40.9246 190.743 40.9673Z" fill="#808285"/>
<path d="M186.899 34.2359C186.666 34.2786 186.645 34.503 186.645 34.503C186.645 34.503 186.624 34.2786 186.391 34.2359C186.624 34.1931 186.645 33.9688 186.645 33.9688C186.645 33.9688 186.666 34.1931 186.899 34.2359Z" fill="#808285"/>
<path d="M183.733 24.897C183.501 24.9398 183.479 25.1642 183.479 25.1642C183.479 25.1642 183.458 24.9398 183.225 24.897C183.458 24.8543 183.479 24.6299 183.479 24.6299C183.479 24.6299 183.501 24.8543 183.733 24.897Z" fill="#808285"/>
<path d="M190.997 8.14213C190.764 8.18488 190.743 8.40927 190.743 8.40927C190.743 8.40927 190.722 8.18488 190.489 8.14213C190.722 8.09939 190.743 7.875 190.743 7.875C190.743 7.875 190.764 8.09939 190.997 8.14213Z" fill="#808285"/>
<path d="M193.877 15.441C193.644 15.4837 193.623 15.7081 193.623 15.7081C193.623 15.7081 193.601 15.4837 193.369 15.441C193.601 15.3982 193.623 15.1738 193.623 15.1738C193.623 15.1738 193.644 15.3982 193.877 15.441Z" fill="#808285"/>
<path d="M199.15 22.1402C198.917 22.1829 198.895 22.4073 198.895 22.4073C198.895 22.4073 198.874 22.1829 198.641 22.1402C198.874 22.0974 198.895 21.873 198.895 21.873C198.895 21.873 198.917 22.0974 199.15 22.1402Z" fill="#808285"/>
<path d="M202.178 16.5835C201.945 16.6263 201.924 16.8507 201.924 16.8507C201.924 16.8507 201.902 16.6263 201.67 16.5835C201.902 16.5408 201.924 16.3164 201.924 16.3164C201.924 16.3164 201.945 16.5408 202.178 16.5835Z" fill="#808285"/>
<path d="M181.669 13.4205C181.436 13.4632 181.415 13.6876 181.415 13.6876C181.415 13.6876 181.393 13.4632 181.16 13.4205C181.393 13.3777 181.415 13.1533 181.415 13.1533C181.415 13.1533 181.436 13.3777 181.669 13.4205Z" fill="#808285"/>
<path d="M173.018 7.87553C172.786 7.91827 172.764 8.14267 172.764 8.14267C172.764 8.14267 172.743 7.91827 172.51 7.87553C172.743 7.83279 172.764 7.6084 172.764 7.6084C172.764 7.6084 172.786 7.83279 173.018 7.87553Z" fill="#808285"/>
<path d="M215.857 66.5162C215.624 66.5589 215.603 66.7833 215.603 66.7833C215.603 66.7833 215.582 66.5589 215.349 66.5162C215.582 66.4734 215.603 66.249 215.603 66.249C215.603 66.249 215.624 66.4734 215.857 66.5162Z" fill="#808285"/>
<path d="M233.349 105.604C233.116 105.647 233.095 105.871 233.095 105.871C233.095 105.871 233.074 105.647 232.841 105.604C233.074 105.561 233.095 105.337 233.095 105.337C233.095 105.337 233.116 105.561 233.349 105.604Z" fill="#808285"/>
<path d="M215.349 132.819C215.116 132.862 215.095 133.086 215.095 133.086C215.095 133.086 215.074 132.862 214.841 132.819C215.074 132.776 215.095 132.552 215.095 132.552C215.095 132.552 215.116 132.776 215.349 132.819Z" fill="#808285"/>
<path d="M249.961 97.8033C249.728 97.846 249.707 98.0704 249.707 98.0704C249.707 98.0704 249.686 97.846 249.453 97.8033C249.686 97.7605 249.707 97.5361 249.707 97.5361C249.707 97.5361 249.728 97.7605 249.961 97.8033Z" fill="#808285"/>
<path d="M222.305 89.4146C222.072 89.4573 222.051 89.6817 222.051 89.6817C222.051 89.6817 222.03 89.4573 221.797 89.4146C222.03 89.3719 222.051 89.1475 222.051 89.1475C222.051 89.1475 222.072 89.3719 222.305 89.4146Z" fill="#808285"/>
<path d="M249.707 34.5035C249.474 34.5462 249.453 34.7706 249.453 34.7706C249.453 34.7706 249.432 34.5462 249.199 34.5035C249.432 34.4607 249.453 34.2363 249.453 34.2363C249.453 34.2363 249.474 34.4607 249.707 34.5035Z" fill="#808285"/>
<path d="M224.158 122.796C223.925 122.839 223.904 123.064 223.904 123.064C223.904 123.064 223.883 122.839 223.65 122.796C223.883 122.754 223.904 122.529 223.904 122.529C223.904 122.529 223.925 122.754 224.158 122.796Z" fill="#808285"/>
<path d="M228.976 132.285C228.743 132.327 228.722 132.552 228.722 132.552C228.722 132.552 228.701 132.327 228.468 132.285C228.701 132.242 228.722 132.018 228.722 132.018C228.722 132.018 228.743 132.242 228.976 132.285Z" fill="#808285"/>
<path d="M234.302 139.733C234.069 139.776 234.048 140 234.048 140C234.048 140 234.026 139.776 233.793 139.733C234.026 139.69 234.048 139.466 234.048 139.466C234.048 139.466 234.069 139.69 234.302 139.733Z" fill="#808285"/>
<path d="M224.423 134.797C224.031 134.861 224 135.235 224 135.235C224 135.235 223.968 134.861 223.576 134.797C223.968 134.732 224 134.358 224 134.358C224 134.358 224.031 134.732 224.423 134.797Z" fill="#808285"/>
<path d="M208.234 122.797C207.842 122.861 207.81 123.235 207.81 123.235C207.81 123.235 207.779 122.861 207.387 122.797C207.779 122.732 207.81 122.358 207.81 122.358C207.81 122.358 207.842 122.732 208.234 122.797Z" fill="#808285"/>
<path d="M224.995 103.574C224.603 103.638 224.571 104.012 224.571 104.012C224.571 104.012 224.54 103.638 224.148 103.574C224.54 103.51 224.571 103.136 224.571 103.136C224.571 103.136 224.603 103.51 224.995 103.574Z" fill="#808285"/>
<path d="M234.715 77.8317C234.323 77.8958 234.291 78.2698 234.291 78.2698C234.291 78.2698 234.259 77.8958 233.868 77.8317C234.259 77.7675 234.291 77.3936 234.291 77.3936C234.291 77.3936 234.323 77.7675 234.715 77.8317Z" fill="#808285"/>
<path d="M228.722 52.818C228.33 52.8821 228.298 53.2561 228.298 53.2561C228.298 53.2561 228.267 52.8821 227.875 52.818C228.267 52.7539 228.298 52.3799 228.298 52.3799C228.298 52.3799 228.33 52.7539 228.722 52.818Z" fill="#808285"/>
<path d="M243.746 27.857C243.355 27.9212 243.323 28.2951 243.323 28.2951C243.323 28.2951 243.291 27.9212 242.899 27.857C243.291 27.7929 243.323 27.4189 243.323 27.4189C243.323 27.4189 243.355 27.7929 243.746 27.857Z" fill="#808285"/>
<path d="M211.876 2.55431C211.485 2.61842 211.453 2.99241 211.453 2.99241C211.453 2.99241 211.421 2.61842 211.029 2.55431C211.421 2.4902 211.453 2.11621 211.453 2.11621C211.453 2.11621 211.485 2.4902 211.876 2.55431Z" fill="#808285"/>
<path d="M210.457 16.317C210.066 16.3811 210.034 16.7551 210.034 16.7551C210.034 16.7551 210.002 16.3811 209.61 16.317C210.002 16.2529 210.034 15.8789 210.034 15.8789C210.034 15.8789 210.066 16.2529 210.457 16.317Z" fill="#808285"/>
<path d="M205.926 38.232C205.534 38.2962 205.502 38.6701 205.502 38.6701C205.502 38.6701 205.471 38.2962 205.079 38.232C205.471 38.1679 205.502 37.7939 205.502 37.7939C205.502 37.7939 205.534 38.1679 205.926 38.232Z" fill="#808285"/>
<path d="M189.525 136.271C188.742 136.399 188.678 137.158 188.678 137.158C188.678 137.158 188.614 136.41 187.831 136.271C188.614 136.142 188.678 135.384 188.678 135.384C188.678 135.384 188.742 136.132 189.525 136.271Z" fill="#808285"/>
<path d="M175.994 81.1027C175.21 81.2309 175.147 81.9896 175.147 81.9896C175.147 81.9896 175.083 81.2416 174.3 81.1027C175.083 80.9745 175.147 80.2158 175.147 80.2158C175.147 80.2158 175.21 80.9638 175.994 81.1027Z" fill="#808285"/>
<path d="M246.986 11.2307C246.203 11.3589 246.139 12.1069 246.139 12.1069C246.139 12.1069 246.076 11.3589 245.292 11.2307C246.076 11.1025 246.139 10.3545 246.139 10.3545C246.139 10.3545 246.203 11.1025 246.986 11.2307Z" fill="#808285"/>
<path d="M249.707 137.382C248.924 137.51 248.86 138.269 248.86 138.269C248.86 138.269 248.797 137.521 248.013 137.382C248.797 137.254 248.86 136.506 248.86 136.506C248.86 136.506 248.924 137.254 249.707 137.382Z" fill="#808285"/>
<path d="M175.57 111.513C174.787 111.641 174.723 112.4 174.723 112.4C174.723 112.4 174.659 111.652 173.876 111.513C174.659 111.385 174.723 110.637 174.723 110.637C174.723 110.637 174.787 111.385 175.57 111.513Z" fill="#808285"/>
<path d="M175.157 23.1662C174.374 23.2945 174.31 24.0424 174.31 24.0424C174.31 24.0424 174.247 23.2945 173.463 23.1662C174.247 23.038 174.31 22.29 174.31 22.29C174.31 22.29 174.374 23.038 175.157 23.1662Z" fill="#808285"/>
<path d="M184.316 1.29222C183.532 1.42044 183.469 2.16842 183.469 2.16842C183.469 2.16842 183.405 1.42044 182.622 1.29222C183.405 1.16399 183.469 0.416016 183.469 0.416016C183.469 0.416016 183.532 1.16399 184.316 1.29222Z" fill="#808285"/>
<path d="M221.215 14.2961C220.432 14.4243 220.368 15.1723 220.368 15.1723C220.368 15.1723 220.305 14.4243 219.521 14.2961C220.305 14.1679 220.368 13.4199 220.368 13.4199C220.368 13.4199 220.432 14.1679 221.215 14.2961Z" fill="#808285"/>
<path d="M222.051 38.6701C221.268 38.7984 221.204 39.557 221.204 39.557C221.204 39.557 221.141 38.8091 220.357 38.6701C221.141 38.5419 221.204 37.7939 221.204 37.7939C221.204 37.7939 221.268 38.5419 222.051 38.6701Z" fill="#808285"/>
<path d="M236.822 1.69901C236.462 1.76313 236.43 2.10506 236.43 2.10506C236.43 2.10506 236.398 1.75244 236.038 1.69901C236.398 1.6349 236.43 1.29297 236.43 1.29297C236.43 1.29297 236.462 1.64559 236.822 1.69901Z" fill="#808285"/>
<path d="M224.296 26.7029C223.936 26.767 223.904 27.109 223.904 27.109C223.904 27.109 223.872 26.7563 223.512 26.7029C223.872 26.6388 223.904 26.2969 223.904 26.2969C223.904 26.2969 223.936 26.6495 224.296 26.7029Z" fill="#808285"/>
<path d="M197.233 39.5467C196.873 39.6108 196.841 39.9527 196.841 39.9527C196.841 39.9527 196.81 39.6001 196.45 39.5467C196.81 39.4826 196.841 39.1406 196.841 39.1406C196.841 39.1406 196.873 39.4932 197.233 39.5467Z" fill="#808285"/>
<path d="M210.426 27.0135C210.066 27.0776 210.034 27.4195 210.034 27.4195C210.034 27.4195 210.002 27.0669 209.642 27.0135C210.002 26.9494 210.034 26.6074 210.034 26.6074C210.034 26.6074 210.066 26.96 210.426 27.0135Z" fill="#808285"/>
<path d="M221.607 0.406044C221.247 0.470157 221.215 0.812089 221.215 0.812089C221.215 0.812089 221.183 0.459471 220.823 0.406044C221.183 0.341932 221.215 0 221.215 0C221.215 0 221.247 0.352617 221.607 0.406044Z" fill="#808285"/>
<path d="M204.719 2.99198C204.359 3.05609 204.327 3.39803 204.327 3.39803C204.327 3.39803 204.295 3.04541 203.935 2.99198C204.295 2.92787 204.327 2.58594 204.327 2.58594C204.327 2.58594 204.359 2.93855 204.719 2.99198Z" fill="#808285"/>
<path d="M177.72 71.2185C177.36 71.2827 177.328 71.6246 177.328 71.6246C177.328 71.6246 177.296 71.272 176.936 71.2185C177.296 71.1544 177.328 70.8125 177.328 70.8125C177.328 70.8125 177.36 71.1651 177.72 71.2185Z" fill="#808285"/>
<path d="M175.57 95.6666C175.178 95.7307 175.147 96.1047 175.147 96.1047C175.147 96.1047 175.115 95.7307 174.723 95.6666C175.115 95.6025 175.147 95.2285 175.147 95.2285C175.147 95.2285 175.178 95.6025 175.57 95.6666Z" fill="#808285"/>
<path d="M229.145 7.87462C228.754 7.93874 228.722 8.31273 228.722 8.31273C228.722 8.31273 228.69 7.93874 228.298 7.87462C228.69 7.81051 228.722 7.43652 228.722 7.43652C228.722 7.43652 228.754 7.81051 229.145 7.87462Z" fill="#808285"/>
<path d="M246.986 46.1715C246.594 46.2356 246.562 46.6096 246.562 46.6096C246.562 46.6096 246.531 46.2356 246.139 46.1715C246.531 46.1074 246.562 45.7334 246.562 45.7334C246.562 45.7334 246.594 46.1074 246.986 46.1715Z" fill="#808285"/>
<path d="M200.431 50.4029C200.039 50.4671 200.007 50.841 200.007 50.841C200.007 50.841 199.975 50.4671 199.584 50.4029C199.975 50.3388 200.007 49.9648 200.007 49.9648C200.007 49.9648 200.039 50.3388 200.431 50.4029Z" fill="#808285"/>
<path d="M182.68 44.4198C182.31 44.4798 182.28 44.8298 182.28 44.8298C182.28 44.8298 182.25 44.4798 181.88 44.4198C182.25 44.3598 182.28 44.0098 182.28 44.0098C182.28 44.0098 182.31 44.3598 182.68 44.4198Z" fill="#808285"/>
</g>
</g>
<defs>
<radialGradient id="paint0_radial_177_958" cx="0" cy="0" r="1" gradientUnits="userSpaceOnUse" gradientTransform="translate(200.33 6.71) scale(123.03 123.03)">
<stop stop-color="#00C3E7"/>
<stop offset="0.0001" stop-color="#010717"/>
</radialGradient>
<clipPath id="clip0_177_958">
<rect width="250" height="140.12" fill="white"/>
</clipPath>
</defs>
</svg>
